<?xml version="1.0" encoding="utf-8"?>
<!-- Generator: Adobe Illustrator 18.0.0, SVG Export Plug-In . SVG Version: 6.00 Build 0)  -->
<!DOCTYPE svg PUBLIC "-//W3C//DTD SVG 1.1//EN" "http://www.w3.org/Graphics/SVG/1.1/DTD/svg11.dtd">
<svg version="1.1" id="Layer_1" xmlns="http://www.w3.org/2000/svg" xmlns:xlink="http://www.w3.org/1999/xlink" x="0px" y="0px"
	 viewBox="0 0 265 99" enable-background="new 0 0 265 99" xml:space="preserve">
<g>
	<path fill="#FFFFFF" d="M0.2,99.4c87.5,0,175,0,262.4,0c0.3,0,0.6,0,1,0c1.6,0,1.6,0,1.6-1.6c0-32,0-64.1,0-96.1c0-0.5,0-1,0-1.4
		c0.5,0.2,0.2,0.6,0.2,1c0,13,0,26.1,0,39.1c0,19.4,0,38.9,0,58.3c0,0.8-0.2,1-1,1c-87.8,0-175.5,0-263.3,0
		C0.9,99.6,0.5,99.9,0.2,99.4z"/>
	<path fill="#FCFCF9" d="M78.8,59.6c-0.1,0.3-0.2,0.6-0.3,0.9c-0.1,0.3-0.3,0.5-0.6,0.4c-0.3,0-0.4-0.3-0.5-0.6
		c-0.2-0.7-0.4-1.4-0.5-2.1c-1-1.3-2.3-2.4-3.3-3.8c0.1,0.4,0.2,0.7,0,0.9c0.4,1.4,0.2,2.8-0.2,4.1c-0.1,0.3-0.2,0.7-0.4,1
		c-0.4,0.4-0.7,1.2-1.3,1c-0.7-0.2-0.4-1-0.4-1.5c0.1-2-0.8-3.8-1.4-5.6c-0.5-1.5-0.5-3,0.7-4.2c0.4-0.3,0.8-0.2,1.1,0
		c1.5,0.6,2.7,0.3,3.7-1c0.2-0.2,0.4-0.4,0.7-0.5c3.2-0.8,4.4,1.2,5.9,3.7c0.6,1,0.8,2.3,1.6,3.3c0.2,0.2,0.2,0.5,0,0.7
		c-0.2,0.3-0.5,0.1-0.7,0c-0.3-0.1-0.6-0.2-0.9-0.3c-0.8,0.2-1.1-0.4-1.6-0.9c-0.9-0.9-1.5-2-2.4-2.8c-0.3-0.3-0.6-0.7-1.2-0.9
		c0.4,0.9,1,1.5,1.5,2.2c0.9,1.3,1.4,2.8,1.3,4.4C79.3,58.7,79.2,59.2,78.8,59.6z"/>
	<path fill="#FCFCF9" d="M211.5,59.7c-0.1,0.1-0.1,0.3-0.2,0.4c-0.3,0.3-0.3,1-0.9,0.8c-0.5-0.1-0.4-0.7-0.5-1.1
		c-0.1-0.5-0.3-1-0.5-1.6c-0.9-1.4-2.3-2.3-3.3-3.8c0,0.4,0,0.7-0.1,0.9c0.4,2.1,0.4,4-1.2,5.7c-0.2,0.2-0.4,0.5-0.8,0.4
		c-0.4-0.1-0.4-0.5-0.4-0.8c0.3-2.3-0.7-4.3-1.4-6.4c-0.5-1.5-0.5-3,0.7-4.2c0.3-0.3,0.6-0.2,0.9,0c1.6,0.7,2.9,0.4,4-1
		c0.2-0.3,0.4-0.5,0.8-0.5c2.6-0.2,4.7,1.3,6,4.3c0.3,0.8,0.7,1.6,1.1,2.4c0.1,0.3,0.6,0.6,0.3,0.9c-0.3,0.4-0.7,0.1-1.1,0
		c-0.2,0-0.4,0-0.6-0.1c-1,0-1.4-0.8-1.9-1.4c-1-1.1-1.8-2.3-3.2-3.4c0.3,1,0.8,1.5,1.3,2.1c1.1,1.5,1.6,3.1,1.5,4.9
		C212.1,58.9,212,59.4,211.5,59.7z"/>
	<path fill="#FCFCFA" d="M230.4,13.7c2.9-0.4,4.3,0.8,5.9,3.7c0.5,0.9,0.9,1.9,1.4,2.8c0.6,1.1,0.5,1.3-0.8,1.4c-0.1,0-0.1,0-0.2,0
		c-0.6-0.2-1-0.9-1.6-1.2c-1.3-1.2-2.4-2.7-3.9-3.9c0.3,0.8,0.8,1.3,1.2,1.9c1.1,1.6,1.7,3.3,1.5,5.3c0,0.4,0,0.9-0.5,1.1
		c-0.2,0.2-0.4,0.5-0.7,0.7c-0.5,0.5-0.9,0.4-0.9-0.3c0-0.8-0.3-1.4-0.6-2.1c-1-1.3-2.1-2.4-3.3-3.6c0.1,0.3,0.2,0.5,0,0.8
		c0.2,1.4,0.3,2.9-0.3,4.2c-0.1,0.3-0.2,0.7-0.4,1c-0.3,0.5-0.7,1-1.3,0.8c-0.6-0.2-0.4-0.8-0.4-1.3c0.1-1.9-0.5-3.5-1.2-5.2
		c-0.7-1.7-0.8-3.4,0.5-4.9c0.6-0.3,1.1,0.1,1.6,0.3c1.3,0.3,2.4,0,3.1-1.1C229.8,14,230,13.8,230.4,13.7z"/>
	<path fill="#FDFDF9" d="M164.5,48.7c2.3-0.4,3.7,0.7,5,2.5c0.9,1.4,1.4,3,2.3,4.4c0.2,0.2,0.2,0.6,0,0.8c-0.2,0.3-0.5,0.1-0.7,0
		c-0.3-0.1-0.5-0.1-0.8-0.2c-0.9,0.2-1.3-0.5-1.7-1c-1-1.3-2-2.6-3.5-3.8c0.5,1,1,1.6,1.4,2.3c0.9,1.5,1.8,3,1.5,4.8
		c-0.1,0.5,0,1.2-0.7,1.4c-0.1,0.1-0.1,0.3-0.2,0.4c-0.2,0.3-0.3,0.8-0.8,0.7c-0.5-0.1-0.5-0.6-0.5-1c0-0.6-0.2-1.2-0.5-1.7
		c-0.9-1.3-1.9-2.5-3.1-3.6c-0.1,0.2,0.1,0.5-0.2,0.7c0.2,1.4,0.3,2.8-0.2,4.2c-0.1,0.3-0.2,0.7-0.5,0.9c-0.4,0.3-0.7,1-1.3,0.8
		c-0.6-0.3-0.2-0.8-0.2-1.3c-0.2-1.9-0.6-3.7-1.4-5.4c-0.7-1.6-0.6-3.1,0.5-4.5c0.4-0.4,0.8-0.2,1.2,0c1.4,0.5,2.6,0.3,3.6-0.9
		C163.8,49,164.1,48.8,164.5,48.7z"/>
	<path fill="#FDFCF8" d="M183.8,20.3c0.4,1.5,0.3,3.1-0.2,4.6c-0.1,0.4-0.3,0.7-0.6,1c-0.3,0.3-0.6,0.6-1,0.5
		c-0.4-0.2-0.3-0.6-0.3-0.9c-0.2-1.9-0.5-3.7-1.4-5.5c-0.8-1.6-0.7-3.3,0.5-4.8c0.4-0.3,0.7,0,1,0.1c1.5,0.6,2.6,0.4,3.7-0.8
		c0.3-0.3,0.5-0.6,1-0.6c2.6-0.5,4.2,1,5.4,3.1c0.7,1.3,1.1,2.7,2.1,3.9c0.5,0.6,0,0.9-1.3,0.9c-0.8,0.2-1.2-0.5-1.6-1
		c-0.9-1-1.7-2.1-2.7-3.1c-0.3-0.3-0.6-0.7-1.2-0.9c0.3,0.9,0.9,1.6,1.4,2.3c0.9,1.2,1.4,2.6,1.4,4.1c0,0.7,0.1,1.5-0.7,2
		c-0.1,0.2-0.2,0.4-0.4,0.6c-0.2,0.2-0.4,0.6-0.7,0.4c-0.3-0.1-0.4-0.5-0.4-0.8c0-0.7-0.1-1.3-0.5-1.9c-0.8-1.3-2.1-2.2-2.9-3.5
		c-0.2-0.3-0.2-0.6-0.5-0.8c-0.3,0.3,0.1,0.4,0.1,0.7C183.9,19.9,183.8,20.1,183.8,20.3z"/>
	<path fill="#FCFDFB" d="M53.8,13.7c2.7-0.5,4.1,1.1,5.4,3.1c0.8,1.2,1.1,2.7,2,3.9c0.3,0.4,0.1,0.6-0.3,0.7c-0.4,0-0.8,0-1.2,0
		c-0.8,0-1.2-0.6-1.6-1.1c-0.8-1-1.6-2-2.5-2.9c-0.3-0.3-0.6-0.7-1.2-0.8c0.4,0.9,1,1.6,1.4,2.3c0.8,1.2,1.4,2.5,1.4,4
		c0,0.7,0,1.5-0.6,2.1c-0.2,0.2-0.3,0.5-0.5,0.6c-0.6,0.5-1,0.4-1.1-0.4c-0.1-0.6-0.1-1.3-0.5-1.8c-1-1.3-2.1-2.6-3.3-3.9
		c-0.1,0.3,0.1,0.7-0.1,0.9c0.4,1.7,0.3,3.4-0.5,5c-0.1,0.3-0.4,0.5-0.6,0.8c-0.2,0.2-0.4,0.5-0.8,0.3c-0.4-0.2-0.5-0.5-0.4-0.9
		c0.3-1.8-0.3-3.6-1-5.2c-0.9-1.9-1-3.6,0.3-5.2c0.4-0.3,0.8-0.1,1.1,0.1c1.4,0.5,2.7,0.4,3.7-0.9C53.1,14,53.4,13.8,53.8,13.7z"/>
	<path fill="#FBFCF9" d="M7.2,20.6c-0.1,1.3,0.2,2.6-0.3,3.8c-0.1,0.3-0.1,0.6-0.3,0.8c-0.4,0.6-0.8,1.5-1.5,1.3
		c-0.7-0.1-0.3-1-0.4-1.6c-0.1-1.3-0.4-2.6-0.9-3.8c-0.2-0.6-0.5-1.3-0.7-1.9c-0.4-1.5-0.2-2.8,0.8-4c0.4-0.2,0.8,0.1,1.1,0.2
		c1.6,0.5,2.5,0.3,3.5-1.1C9,14,9.1,13.6,9.6,13.7c3.2-0.5,4.7,1.5,5.9,3.9c0.5,1,0.8,2,1.5,2.8c0.2,0.3,0.4,0.6,0.1,0.9
		c-0.3,0.4-0.6,0.2-1,0.1c-0.4-0.2-0.7-0.4-1.1-0.5c-0.9,0.2-1.2-0.5-1.6-1c-0.9-1.2-1.9-2.2-3.1-3.1c0.2,0.7,0.7,1.2,1.1,1.8
		c0.9,1.2,1.5,2.6,1.6,4.1c0.1,0.8,0.1,1.7-0.6,2.3c-0.3,0.4-0.5,1-1.1,0.9c-0.6-0.1-0.5-0.8-0.5-1.2c0-0.5-0.2-0.9-0.5-1.3
		c-0.8-1.4-2-2.5-3.2-3.7C7.2,19.9,7.5,20.2,7.2,20.6z"/>
	<path fill="#FCFCFA" d="M53.6,83.5c3.4-0.6,4.8,1.6,6.2,4.4c0.3,0.7,0.6,1.5,1.1,2.1c0.2,0.3,0.6,0.5,0.4,0.9
		c-0.2,0.4-0.7,0.2-1.1,0.2c-0.3,0-0.5-0.2-0.8-0.2c-0.9,0.1-1.3-0.7-1.8-1.2c-1-1.1-1.8-2.4-3.1-3.3c0.2,0.8,0.7,1.4,1.2,2.1
		c0.7,1,1.2,2.1,1.4,3.2c0.2,1,0.3,2.1-0.7,2.8c-0.1,0.6-0.3,1.2-0.9,1.1c-0.6,0-0.5-0.7-0.6-1.1c-0.1-0.5-0.2-0.9-0.5-1.3
		c-0.9-1.5-2-2.7-3.3-3.9c0,0.3,0.2,0.6,0,0.9c0.1,1.1,0.2,2.3,0,3.4c-0.2,1-0.5,1.9-1.3,2.6c-0.2,0.2-0.5,0.3-0.8,0.1
		c-0.2-0.1-0.3-0.4-0.3-0.6c0.4-1.9-0.2-3.6-0.9-5.3c-0.8-1.9-1.2-3.7,0.2-5.5c0.4-0.4,0.7-0.1,1.1,0c1.8,0.7,2.4,0.6,3.7-0.9
		C53.1,83.8,53.3,83.5,53.6,83.5z"/>
	<path fill="#FCFCF8" d="M29.3,55.3c0.3,1.7,0.4,3.5-0.6,5.1c-0.2,0.3-0.4,0.7-0.8,0.9c-0.6,0.3-1,0.1-1-0.7c0.2-2-0.4-3.8-1.2-5.6
		c-0.8-1.7-0.5-3.8,0.6-4.8c0.3-0.3,0.7-0.1,1,0c1.6,0.6,2.5,0.4,3.6-1c0.2-0.2,0.3-0.5,0.7-0.6c3.5-0.2,5.2,2,6.3,4.8
		c0.3,0.7,0.7,1.3,1,1.9c0.2,0.3,0.7,0.6,0.3,1c-0.3,0.3-0.7,0.2-1.1,0c-0.2-0.1-0.5-0.3-0.7-0.4c-0.6,0.3-0.8-0.2-1.1-0.6
		c-0.9-0.9-1.6-2-2.5-2.9c-0.3-0.3-0.6-0.7-1.2-0.9c0.4,0.8,0.8,1.4,1.3,2c0.9,1.2,1.4,2.6,1.5,4.1c0.1,0.8,0.1,1.6-0.6,2.2
		c-0.2,0.2-0.3,0.5-0.5,0.7c-0.2,0.2-0.4,0.4-0.7,0.4c-0.4-0.1-0.5-0.4-0.5-0.7c0.1-0.7-0.3-1.3-0.5-1.9c-1-1.3-2.1-2.6-3.3-3.7
		C29.3,54.8,29.5,55.1,29.3,55.3z"/>
	<path fill="#FBFCF8" d="M117.8,55.6c0.3,1.5,0,2.9-0.4,4.4c-0.1,0.5-0.5,0.8-0.8,1.1c-0.2,0.2-0.5,0.3-0.8,0.2
		c-0.4-0.1-0.4-0.5-0.4-0.8c0.2-2.1-0.7-4.1-1.3-6c-0.5-1.6-0.7-3.1,0.6-4.4c0.5-0.4,1-0.1,1.5,0.1c1.2,0.5,2.1,0.3,3-0.7
		c0.3-0.4,0.5-0.8,1.1-0.8c2.4-0.6,4.2,0.9,5.5,3.2c0.6,1,1.1,2.1,1.6,3.2c0.2,0.4,0.8,0.8,0.4,1.3c-0.4,0.5-0.9-0.1-1.3,0
		c-0.6,0.1-0.9-0.3-1.3-0.7c-0.9-0.8-1.6-1.9-2.4-2.8c-0.4-0.5-0.9-1-1.7-1.5c0.3,0.8,0.7,1.3,1.1,1.8c1,1.5,1.8,3,1.7,4.9
		c0,0.6-0.1,1.3-0.6,1.7c-0.1,0.4-0.3,0.6-0.6,0.9c-0.5,0.4-0.9,0.3-0.9-0.4c0-0.7-0.3-1.3-0.5-1.9c-0.2-0.4-0.5-0.7-0.8-1
		c-0.8-1-1.7-1.8-2.6-2.8C117.8,55,118,55.3,117.8,55.6z"/>
	<path fill="#FDFDF8" d="M252.8,48.7c2.1-0.7,3.8,0.6,5.2,2.7c0.9,1.3,1.2,2.9,2.2,4.2c0.4,0.5,0,0.7-0.5,0.7c-0.4,0-0.7-0.1-1-0.2
		c-0.9,0-1.3-0.7-1.8-1.2c-0.8-0.8-1.4-1.8-2.2-2.6c-0.3-0.3-0.6-0.6-1.2-0.9c0.4,0.9,0.9,1.5,1.4,2.2c0.9,1.4,1.4,2.8,1.4,4.5
		c0,0.6-0.1,1.2-0.6,1.6c-0.2,0.3-0.3,0.6-0.5,0.8c-0.5,0.5-0.8,0.4-1-0.3c-0.2-0.8-0.3-1.6-0.7-2.2c-1-1.2-2.1-2.3-3.1-3.5
		c-0.2,0.2,0,0.5-0.2,0.6c0.2,1.4,0.4,2.8,0,4.1c-0.2,0.7-0.5,1.4-1.2,1.9c-0.5,0.3-1,0.2-1-0.5c0.2-2.2-0.7-4.2-1.4-6.2
		c-0.6-1.5-0.5-3,0.5-4.4c0.4-0.4,0.7-0.1,1.1,0c1.4,0.4,2.7,0.5,3.6-0.9C252,49,252.3,48.7,252.8,48.7z"/>
	<path fill="#FCFCF8" d="M98,13.7c3.3-0.5,4.7,1.7,6,4.1c0.5,0.9,0.8,2,1.4,2.9c0.2,0.2,0.2,0.4,0.1,0.7c-0.2,0.3-0.5,0.3-0.7,0.2
		c-0.3-0.1-0.6-0.2-0.9-0.3c-0.9,0-1.3-0.8-1.9-1.3c-0.8-0.8-1.3-1.7-2.1-2.5c-0.3-0.3-0.6-0.6-1.3-0.9c0.5,0.8,1,1.4,1.4,2.1
		c0.7,1.1,1.3,2.3,1.5,3.6c0.2,1,0.1,1.9-0.7,2.6c-0.2,0.5-0.3,1.1-0.9,1.1c-0.7,0-0.5-0.7-0.6-1.1c-0.1-0.4-0.2-0.8-0.2-1.2
		c-1.1-1.4-2.4-2.6-3.5-4c-0.1,0.3,0.2,0.6-0.1,0.9c-0.1,1.4,0.2,2.8-0.2,4.2c-0.1,0.4-0.3,0.7-0.5,1.1c-0.3,0.4-0.6,0.9-1.2,0.7
		c-0.7-0.2-0.4-0.8-0.4-1.2c0-1.9-0.5-3.6-1.3-5.3c-0.8-1.6-0.5-3.3,0.6-4.7c0.3-0.2,0.6-0.1,0.9,0c1.6,0.5,3,0.5,4.1-1.1
		C97.5,13.9,97.7,13.7,98,13.7z"/>
	<path fill="#FBFBF8" d="M189.3,94.6c-0.1,0.1-0.1,0.3-0.3,0.4c-0.3,0.3-0.4,0.9-0.9,0.7c-0.5-0.2-0.4-0.6-0.4-1
		c0-0.5-0.2-1-0.5-1.4c-0.8-1.5-2.1-2.6-3.3-4c0,0.4,0.2,0.7,0,0.9c0.2,1.2,0.3,2.4,0,3.7c-0.2,0.7-0.4,1.3-0.8,1.8
		c-0.3,0.4-0.7,0.7-1.2,0.5c-0.6-0.2-0.1-0.7-0.2-1c-0.1-1.7-0.5-3.4-1.2-5c-0.5-1.2-0.9-2.4-0.5-3.7c0.2-0.6,0.6-1,0.9-1.5
		c0.3-0.2,0.6-0.1,0.9,0c1.7,0.8,3,0.3,4-1.1c0.1-0.2,0.3-0.3,0.5-0.3c3.2-0.4,4.3,1,6,4c0.5,0.8,0.8,1.6,1.2,2.4
		c0.2,0.3,0.6,0.5,0.4,0.9c-0.2,0.4-0.7,0.3-1.1,0.3c-0.2,0-0.3,0-0.5,0c-1.2,0.1-1.6-0.9-2.2-1.6c-0.9-1.1-1.8-2.1-3-3.2
		c0,0.5,0.2,0.7,0.4,1c0.2,0.3,0.4,0.5,0.6,0.8c0.9,1.2,1.5,2.6,1.7,4C190,93.1,190.2,94,189.3,94.6z"/>
	<path fill="#FBFCF9" d="M142.1,83.6c2.5-0.5,4,0.9,5.3,2.8c0.9,1.3,1.2,2.9,2.2,4.1c0.4,0.4,0.2,0.7-0.4,0.8c-0.3,0-0.6,0-1,0
		c-1,0-1.5-0.8-2.1-1.4c-1-1.2-2-2.3-3.2-3.3c0.4,0.8,0.9,1.6,1.4,2.3c0.8,1.2,1.2,2.6,1.2,4.1c0,0.6,0,1.3-0.6,1.7
		c-0.1,0.3-0.2,0.6-0.5,0.8c-0.6,0.6-1,0.3-1.2-0.4c-0.1-0.6-0.2-1.2-0.3-1.9c-1.1-1.3-2.1-2.5-3.3-3.7c0.1,0.3,0.2,0.6,0,0.8
		c0,1.5,0.1,3-0.4,4.4c-0.1,0.2-0.1,0.5-0.2,0.7c-0.4,0.4-0.7,1.2-1.4,1c-0.6-0.2-0.3-0.9-0.3-1.4c0-1.6-0.5-3.1-1.1-4.6
		c-0.7-1.9-1.1-3.8,0.4-5.5c0.3-0.2,0.5,0,0.7,0.2c1.6,0.8,2.4,0.7,3.7-0.5C141.4,84.2,141.6,83.7,142.1,83.6z"/>
	<path fill="#FCFBF8" d="M100.9,94.6c-0.2,0.3-0.3,0.5-0.5,0.8c-0.2,0.2-0.4,0.4-0.7,0.4c-0.4-0.1-0.3-0.5-0.4-0.8
		c0-0.6-0.1-1.2-0.5-1.7c-1-1.4-2.2-2.6-3.3-4c-0.1,0.4,0.1,0.7-0.1,0.9c0,1,0,2,0,3c0,1.1-0.5,2-1.2,2.8c-0.2,0.3-0.5,0.5-0.8,0.4
		c-0.4-0.1-0.4-0.4-0.4-0.8c0.1-2.1-0.5-4-1.2-5.9c-0.6-1.5-1-3.2,0.5-4.5c0.5-0.4,0.9-0.2,1.4,0c1.3,0.5,2.3,0.2,3.2-0.9
		c0.3-0.4,0.7-0.7,1.2-0.8c1.8-0.4,3.1,0.2,4.3,1.6c1.4,1.6,1.9,3.6,3,5.3c0.2,0.3,0.1,0.6-0.3,0.7c-0.4,0-0.7,0-1.1,0
		c-0.6,0.1-0.9-0.4-1.3-0.7c-1-0.9-1.8-2.1-2.7-3.2c-0.3-0.4-0.7-0.8-1.3-1.1c0.3,0.8,0.8,1.5,1.3,2.1c1,1.6,1.8,3.2,1.5,5.1
		C101.4,93.9,101.5,94.4,100.9,94.6z"/>
	<path fill="#FCFCFA" d="M145,24.9c-0.2,0.3-0.4,0.6-0.7,0.8c-0.5,0.4-1,0.1-0.9-0.4c0.2-0.8-0.3-1.4-0.5-2c-1-1.4-2.2-2.6-3.4-3.8
		c0.1,0.3,0.3,0.7,0.1,1.1c0.4,1.3-0.1,2.6-0.2,3.9c-0.1,0.8-0.7,1.3-1.3,1.8c-0.6,0.4-0.9,0-0.8-0.5c0.2-2.3-0.8-4.3-1.5-6.4
		c-0.5-1.5-0.5-3.1,0.8-4.3c0.4-0.2,0.7,0.1,1,0.2c1.4,0.5,2.7,0.4,3.7-1c0.2-0.3,0.4-0.6,0.8-0.6c2.9-0.2,4.9,1.3,6.1,4.6
		c0.2,0.7,0.6,1.3,1,1.9c0.2,0.3,0.6,0.6,0.4,1.1c-0.3,0.5-0.8,0.3-1.2,0.3c-0.9,0-1.4-0.7-1.9-1.2c-1.1-1.3-2.1-2.7-3.7-3.8
		c0.4,1,1,1.6,1.4,2.3c0.9,1.3,1.5,2.8,1.4,4.5C145.6,23.9,145.5,24.5,145,24.9z"/>
	<path fill="#FCFCF9" d="M9.8,83.6c2.5-0.3,4.6,1.1,5.7,3.9c0.4,0.9,0.9,1.8,1.3,2.7c0.2,0.3,0.6,0.5,0.2,0.9
		c-0.3,0.3-0.7,0.3-1.1,0.1c-0.3-0.1-0.6-0.3-0.9-0.4c-0.7,0.2-1-0.5-1.3-0.8c-1.1-1.2-2-2.5-3.3-3.4c0.4,0.9,1.1,1.7,1.6,2.6
		c0.7,1.3,1.3,2.6,1.1,4.1c-0.1,0.6-0.1,1.2-0.6,1.6c-0.2,0.3-0.3,0.5-0.6,0.8c-0.4,0.4-0.8,0.4-0.9-0.3c-0.2-0.7-0.3-1.4-0.5-2.1
		c-0.7-0.6-1.1-1.3-1.6-2c-0.4-0.8-1.1-1.3-1.7-2C7.1,89.1,7,89,6.9,89C6.6,89.2,7,89.2,7,89.4c0.2,0.3,0.4,0.5,0.2,0.9
		c-0.1,1.5,0.2,3-0.5,4.5c-0.2,0.5-0.4,0.8-0.8,1.2c-0.3,0.3-0.6,0.6-1.1,0.4c-0.5-0.2-0.2-0.7-0.2-1.1c0-1.4-0.1-2.9-0.7-4.2
		c-0.3-0.7-0.7-1.5-0.8-2.2C2.9,87.4,2.9,86,4.1,85c0.4-0.2,0.8,0,1.2,0.1c1.4,0.4,2.8,0.3,3.8-1C9.2,83.8,9.5,83.6,9.8,83.6z"/>
	<path fill="#FBFBF8" d="M230.6,83.6c2.5-0.8,3.8,0.9,5,2.5c1,1.3,1.6,2.9,2.3,4.4c0.2,0.5,0,0.7-0.4,0.7c-0.3,0-0.6,0-1,0
		c-0.7,0.1-1-0.4-1.4-0.7c-1-1-1.7-2.2-2.7-3.2c-0.3-0.3-0.6-0.7-1.3-1c0.4,0.9,0.9,1.5,1.4,2.2c1,1.4,1.6,3,1.4,4.8
		c0,0.5-0.1,1-0.6,1.4c-0.1,0.6-0.3,1.2-1,1.1c-0.6,0-0.5-0.7-0.6-1.1c-0.1-0.5-0.3-0.9-0.4-1.3c-1-1.5-2.4-2.6-3.4-4
		c-0.1-0.1-0.1-0.4-0.2-0.3c-0.1,0.1,0.1,0.2,0.1,0.4c0.2,0.3,0.4,0.6,0.2,0.9c0,1,0,2,0,3c0,1.2-0.5,2.1-1.4,2.9
		c-0.6,0.5-1,0.2-0.9-0.4c0.2-2.4-0.8-4.6-1.5-6.8c-0.5-1.4-0.2-2.8,0.8-3.9c0.3-0.3,0.7-0.1,1,0c1.6,0.7,2.8,0.4,3.9-1
		C230,83.8,230.3,83.6,230.6,83.6z"/>
	<path fill="#FBF5AA" d="M142.1,83.6c-0.9,2.5-3.9,3.2-5.5,1.2c-1.3-3.3-1.7-6.7-1.7-10.2c0-1,0-2.5,1.1-2.6
		c1.1-0.2,1.4,1.2,1.7,2.1C138.7,77.4,140.3,80.6,142.1,83.6z"/>
	<path fill="#FBF5AA" d="M252.8,48.7c-0.9,1.4-1.9,2.5-3.8,2.2c-0.8-0.1-1.2-0.7-2-0.8c-0.5-2.5-1.3-4.9-1.4-7.5
		c-0.1-1.6-0.2-3.1,0.1-4.6c0.1-0.5,0.3-1.1,0.9-1.2c0.6-0.1,0.8,0.5,1,0.9c0.5,1.1,0.9,2.3,1.4,3.4
		C250.1,43.8,251.1,46.4,252.8,48.7z"/>
	<path fill="#FBF5AB" d="M230.6,83.6c-1.3,2.3-2.7,3.1-5.7,1.5c-1-2.9-1.4-5.9-1.6-9c-0.1-1.2-0.3-2.4,0.4-3.5c0.6-1,1.1-1,1.6,0
		c1,2.3,2,4.6,3,6.9C228.9,80.9,229.5,82.3,230.6,83.6z"/>
	<path fill="#FBF5AA" d="M230.4,13.7c-0.7,2.5-3,3-5.5,1.4c-1-2.9-1.4-5.9-1.7-8.9c-0.1-1,0.1-2.1,0.3-3.1c0.1-0.5,0.3-1.1,0.9-1.1
		c0.7-0.1,0.8,0.5,1,1C227,6.6,228.3,10.3,230.4,13.7z"/>
	<path fill="#FBF5AA" d="M208.7,48.6c-0.6,1.7-2,2.2-3.6,2.4c-0.8,0.1-1.3-0.8-2-0.9c-1-3-1.5-6-1.7-9.1c-0.1-1.3-0.1-2.6,0.6-3.7
		c0.5-0.8,0.9-0.7,1.3,0c0.6,1.3,1.1,2.7,1.7,4.1C206.1,43.9,207,46.5,208.7,48.6z"/>
	<path fill="#FBF4AA" d="M9.6,13.7c-1.2,2.6-3.3,3.1-5.5,1.4C2.8,11.6,2.4,8,2.4,4.3c0-0.3,0-0.7,0.1-0.9c0.2-0.5,0.4-1.3,1-1.3
		C4.2,2,4.4,2.6,4.6,3.1c1.1,2.3,1.7,4.8,3,7C8.3,11.3,8.8,12.6,9.6,13.7z"/>
	<path fill="#FAF4AA" d="M98,13.7c-0.7,2.3-2.9,2.7-5,1.7c-0.2-0.1-0.4-0.2-0.5-0.2c-0.9-3.3-1.6-6.7-1.6-10.2
		c0-0.7,0.1-1.4,0.4-2.1C91.3,2.4,91.5,2,92,2c0.5,0,0.8,0.4,0.9,0.8c0.4,1.1,0.9,2.1,1.3,3.2C95.3,8.7,96.4,11.3,98,13.7z"/>
	<path fill="#FBF5AA" d="M9.8,83.6c-1.3,2.3-3.4,2.8-5.7,1.4c-1.2-3.3-1.8-6.8-1.7-10.3c0-0.8,0.1-1.6,0.4-2.3
		c0.4-0.8,0.9-0.9,1.3-0.1c0.9,1.9,1.7,3.9,2.6,5.9C7.6,80,8.2,82,9.8,83.6z"/>
	<path fill="#FBF5AA" d="M164.5,48.7c-1.3,2.2-2.6,2.7-5,1.7c-0.3-0.1-0.5-0.2-0.8-0.3c-1-3.6-1.7-7.3-1.5-11c0-0.9,0.1-2.1,1.1-2.2
		c0.8-0.1,1.1,1.1,1.4,1.8c1.1,3.1,2.5,6.1,4,9C163.8,48.1,164.2,48.4,164.5,48.7z"/>
	<path fill="#FCF5AA" d="M98.1,83.6c-0.8,1.1-1.6,2.3-3.2,2.4c-0.9,0-1.6-0.7-2.5-0.7c-0.4-2.2-1.2-4.2-1.4-6.4
		c-0.1-1.9-0.5-3.7-0.1-5.6c0.1-0.6,0.3-1.2,1-1.3c0.6-0.1,0.8,0.5,1,1c1.1,2.6,2.2,5.2,3.3,7.8C96.8,81.6,97.2,82.7,98.1,83.6z"/>
	<path fill="#FBF5AA" d="M53.6,83.5c-0.7,2.3-3.1,3-4.8,1.7c-0.2-0.2-0.5-0.3-0.8-0.3c-0.8-2.8-1.4-5.7-1.7-8.6
		c-0.1-1.1,0.1-2.2,0.2-3.3c0.1-0.5,0.4-1,0.9-1.2c0.7-0.1,0.9,0.5,1.1,0.9c1,2.4,1.9,4.9,3,7.2C52.3,81.2,52.9,82.4,53.6,83.5z"/>
	<path fill="#FAF4A9" d="M186.5,13.7c-1.1,2.3-3.2,3.1-5.7,1.4c-0.6-2.2-1.1-4.4-1.4-6.7c-0.2-1.6-0.1-3.3-0.1-4.9
		c0-0.7,0.3-1.3,0.9-1.5c0.8-0.2,1,0.6,1.2,1.1c0.9,2.2,1.8,4.4,2.7,6.5C184.8,11.1,185.5,12.5,186.5,13.7z"/>
	<path fill="#FBF5A9" d="M120.2,48.7c-0.5,0.5-0.6,1.3-1.3,1.7c-1,0.6-2,1.1-3.1,0.1c-0.3-0.2-0.7-0.3-1.1-0.4
		c-0.8-2.6-1.4-5.3-1.6-8c-0.1-1.4,0-2.8,0.2-4.2c0.1-0.5,0.3-1,0.8-1.1c0.5-0.1,0.7,0.4,0.9,0.8c0.5,1,1,1.9,1.3,2.9
		C117.3,43.4,118.6,46.2,120.2,48.7z"/>
	<path fill="#FBF5AA" d="M142.1,13.7c-0.9,1.9-1.9,2.6-4.3,2.2c-0.6-0.1-0.9-0.5-1.3-0.8c-1.2-2.9-1.4-5.9-1.7-9
		c-0.1-1.1,0-2.2,0.4-3.3c0.2-0.4,0.4-0.8,0.9-0.9c0.5,0,0.6,0.4,0.8,0.8c1.2,2.8,2.1,5.7,3.6,8.4C141,12.1,141.6,12.9,142.1,13.7z"
		/>
	<path fill="#FBF4AA" d="M53.8,13.7c-1.3,2.1-2.6,3.1-5.7,1.4c-0.7-3.2-1.7-6.4-1.5-9.7c0-0.9,0-1.8,0.3-2.6C47,2.4,47.2,2,47.6,2
		c0.5,0,0.7,0.3,0.9,0.7c0.8,1.9,1.6,3.9,2.5,5.8C51.8,10.3,52.4,12.2,53.8,13.7z"/>
	<path fill="#FBF5AA" d="M75.8,48.7c-0.6,2.1-3,2.8-4.8,1.7c-0.2-0.1-0.4-0.2-0.7-0.2c-0.8-2.9-1.5-5.8-1.6-8.8
		c-0.1-1.4-0.2-2.9,0.7-4.1c0.5-0.6,0.8-0.7,1.2,0.1c0.5,1.2,1.1,2.5,1.6,3.7C73.1,43.8,74.5,46.3,75.8,48.7z"/>
	<path fill="#FBF4A9" d="M31.7,48.5c-0.7,2.3-2.7,3.1-4.7,1.9c-0.2-0.1-0.4-0.2-0.6-0.3c-1.4-3.6-1.9-7.4-1.7-11.2
		c0-0.8,0.2-1.8,0.9-2c1-0.2,1,0.9,1.3,1.5c1,2.2,1.8,4.5,2.8,6.7C30.3,46.3,30.9,47.5,31.7,48.5z"/>
	<path fill="#FBF5A9" d="M186.3,83.5c-0.8,2.5-2.8,3-5.4,1.5c-0.7-2-1.2-4.1-1.4-6.2c-0.5-1.9-0.4-3.9-0.1-5.8
		c0.1-0.5,0.3-0.9,0.9-1.1c0.5-0.1,0.7,0.4,1,0.7c0.5,0.6,0.6,1.4,0.9,2.1c0.9,2.4,1.8,4.8,3.1,7C185.6,82.3,185.7,83,186.3,83.5z"
		/>
	<path fill="#F6EB2A" d="M255.6,59.8c0.5-2.5,0-4.7-1.7-6.6c-0.4-0.5-0.7-1.1-1-1.7c-0.1-0.2-0.2-0.5,0-0.7c0.2-0.2,0.5,0,0.6,0.1
		c1.2,0.8,2.1,1.8,2.9,2.9c0.7,0.9,1.4,1.6,2.2,2.4c1.6,1.8,3.6,2.9,5.6,4.1c0.5,0.3,0.8,0.6,0.7,1.2c-0.1,0.7-0.6,0.7-1.1,0.7
		C260.9,62.1,258.1,61.4,255.6,59.8z"/>
	<path fill="#F6EB2B" d="M233.3,94.6c0.7-2.4-0.1-4.5-1.5-6.4c-0.4-0.6-0.8-1.3-1.2-1.9c-0.1-0.2-0.3-0.5,0-0.7
		c0.3-0.2,0.6,0,0.8,0.1c0.8,0.6,1.5,1.4,2.2,2.2c0.9,1.1,1.8,2.3,3,3.2c1.5,1.7,3.5,2.8,5.4,4c0.5,0.3,1.1,0.5,0.9,1.2
		c-0.2,0.6-0.8,0.7-1.4,0.7C238.5,96.9,235.8,96.2,233.3,94.6z"/>
	<path fill="#F5EB29" d="M12.5,94.7c0.7-2.9-0.4-5.3-2.2-7.5c-0.1-0.1-0.1-0.1-0.1-0.2c-0.2-0.5-0.8-1-0.3-1.4
		c0.5-0.4,0.9,0.3,1.3,0.6c1.5,1.3,2.6,3,4,4.4c1.7,1.8,3.8,3.1,5.9,4.4c0.5,0.3,1.1,0.6,0.9,1.2C21.8,97,21.1,97,20.6,97
		C17.7,96.9,15,96.2,12.5,94.7z"/>
	<path fill="#F6EB2D" d="M100.9,94.6c0.6-2.5-0.2-4.7-1.8-6.6c-0.4-0.4-0.6-0.9-0.9-1.4c-0.2-0.3-0.4-0.6-0.1-0.9
		c0.3-0.3,0.7,0,0.9,0.2c0.6,0.6,1.2,1.2,1.7,1.8c1.1,1.2,1.9,2.5,3.2,3.5c1.8,1.6,3.7,3,5.8,4.1c0.4,0.2,0.6,0.6,0.5,1
		c-0.1,0.5-0.5,0.7-1,0.7c-1.8,0.1-3.6-0.3-5.3-0.9C103,95.8,101.8,95.5,100.9,94.6z"/>
	<path fill="#F7EB29" d="M145,24.9c0.7-2.7-0.2-5-1.9-7c-0.3-0.3-0.4-0.7-0.6-1.1c-0.1-0.3-0.5-0.5-0.2-0.8c0.4-0.3,0.7,0,1,0.2
		c0.8,0.7,1.6,1.4,2.2,2.3c0.8,1.2,1.8,2.2,2.9,3.1c1.4,1.6,3.3,2.6,5.1,3.7c0.4,0.3,1.2,0.4,0.9,1.2c-0.3,0.7-0.9,0.8-1.6,0.8
		C150,27,147.4,26.3,145,24.9z"/>
	<path fill="#F7EC2A" d="M56.6,24.9c0.9-3.2-1-5.6-2.6-8.1c-0.2-0.3-0.7-0.6-0.2-1c0.4-0.3,0.8,0.1,1.1,0.3c1.3,1.1,2.2,2.4,3.3,3.6
		c0.5,0.5,1,1,1.4,1.6c1.7,1.6,3.7,2.9,5.7,4.1c0.4,0.2,0.8,0.5,0.7,1c-0.1,0.6-0.6,0.8-1.2,0.8C61.9,27.1,59.1,26.4,56.6,24.9z"/>
	<path fill="#F6EB27" d="M123.1,59.8c0.8-2.8-0.4-5.1-2.1-7.2c-0.4-0.5-1.1-1.3-0.6-1.7c0.5-0.5,1.1,0.4,1.5,0.8
		c1.2,1.3,2.4,2.7,3.6,4c0.2,0.3,0.5,0.5,0.8,0.7c1.3,1.5,3.1,2.5,4.7,3.6c0.3,0.2,0.6,0.4,0.9,0.6c0.3,0.2,0.7,0.5,0.5,1
		c-0.1,0.4-0.5,0.6-0.9,0.7c-1.2,0.2-2.3-0.1-3.4-0.3C126.4,61.4,124.7,60.9,123.1,59.8z"/>
	<path fill="#F7EC2A" d="M211.5,59.7c0.6-2.4,0-4.5-1.5-6.4c-0.4-0.5-0.7-1-1-1.5c-0.2-0.3-0.5-0.8-0.1-1.1c0.4-0.4,0.7,0.1,1,0.3
		c0.8,0.8,1.6,1.6,2.4,2.5c0.7,0.9,1.5,1.7,2.2,2.5c1.6,1.7,3.6,2.9,5.6,4c0.6,0.3,1,0.7,0.9,1.4c-0.2,0.7-0.8,0.6-1.3,0.6
		C216.7,62,214,61.4,211.5,59.7z"/>
	<path fill="#F7EB27" d="M78.8,59.6c0.7-2.3,0-4.2-1.3-6.1c-0.4-0.6-0.9-1.2-1.2-1.8c-0.2-0.3-0.5-0.6-0.2-0.9c0.4-0.4,0.8,0,1,0.2
		c1,0.8,1.9,1.8,2.6,2.8c0.6,0.8,1.4,1.6,2.1,2.3c1.5,1.8,3.6,2.9,5.5,4.1c0.5,0.3,1.1,0.4,1,1.2c-0.1,0.7-0.8,0.8-1.3,0.7
		C84,62,81.2,61.4,78.8,59.6z"/>
	<path fill="#F7EC29" d="M12.5,24.9c0.7-2.7-0.2-4.9-1.8-7c-0.3-0.4-0.6-0.9-0.8-1.3c-0.1-0.2-0.3-0.5,0-0.7c0.4-0.3,0.7,0,0.9,0.2
		c1.1,1,2.1,2.1,3,3.2c0.4,0.5,0.8,1.1,1.4,1.5c1.6,1.9,3.8,3.1,5.9,4.4c0.5,0.3,1.1,0.6,0.9,1.3c-0.2,0.7-0.8,0.6-1.4,0.6
		C17.6,27.1,15,26.2,12.5,24.9z"/>
	<path fill="#F6EC28" d="M56.4,94.6c0.9-2.2,0.1-4.2-1.2-6c-0.5-0.7-0.9-1.5-1.4-2.2c-0.1-0.2-0.2-0.5-0.1-0.7
		c0.2-0.3,0.5-0.1,0.8,0c0.9,0.6,1.6,1.4,2.3,2.2c0.8,1,1.5,2.1,2.6,2.9c1.7,1.8,3.8,3,5.8,4.3c0.5,0.3,0.9,0.6,0.7,1.2
		C65.8,97,65.3,97,64.8,97C61.8,96.9,59,96.2,56.4,94.6z"/>
	<path fill="#F7EC2A" d="M145,94.6c0.7-2.5-0.2-4.5-1.6-6.5c-0.4-0.5-0.7-1.1-1.1-1.7c-0.1-0.2-0.4-0.5-0.1-0.7
		c0.3-0.2,0.6,0,0.8,0.1c1,0.8,2,1.8,2.8,2.8c0.7,1,1.5,1.9,2.5,2.6c1.5,1.7,3.5,2.8,5.5,4c0.4,0.3,0.9,0.4,0.8,1
		c-0.1,0.6-0.6,0.8-1.2,0.8C150.3,96.9,147.5,96.2,145,94.6z"/>
	<path fill="#F7EC28" d="M100.8,24.8c0.8-2.4-0.1-4.4-1.4-6.3c-0.4-0.6-0.8-1.2-1.2-1.8c-0.2-0.3-0.4-0.6-0.1-0.8
		c0.3-0.2,0.6,0,0.8,0.2c1.1,0.9,2,2,2.8,3c0.6,0.7,1.2,1.5,2,2.1c1.6,1.8,3.6,2.9,5.6,4.2c0.4,0.3,1,0.5,0.9,1.1
		c-0.2,0.7-0.8,0.9-1.4,0.8C106,27,103.3,26.4,100.8,24.8z"/>
	<path fill="#F7EC29" d="M233.5,24.9c0.6-3-0.6-5.4-2.4-7.7c-0.3-0.3-0.9-0.9-0.4-1.3c0.5-0.4,0.9,0.3,1.3,0.6
		c1.3,1.1,2.3,2.4,3.4,3.7c0.5,0.5,0.9,1.1,1.5,1.4c0,0,0,0,0,0c1.4,1.6,3.4,2.6,5.2,3.8c0.4,0.3,0.9,0.4,0.8,1
		c-0.2,0.5-0.6,0.9-1.2,0.8C238.7,27.1,236,26.4,233.5,24.9z"/>
	<path fill="#F7EC2A" d="M189.3,94.6c0.7-2.4,0-4.4-1.4-6.3c-0.4-0.5-0.8-1.1-1.1-1.7c-0.2-0.3-0.4-0.6-0.2-0.8
		c0.3-0.3,0.7-0.1,1,0.2c0.9,0.8,1.7,1.6,2.4,2.5c0.7,1,1.5,2,2.5,2.7c1.4,1.5,3.2,2.6,4.9,3.7c0.3,0.2,0.6,0.3,0.8,0.5
		c0.4,0.2,0.6,0.6,0.5,1.1c-0.1,0.5-0.5,0.6-0.9,0.6C194.7,97,191.8,96.3,189.3,94.6z"/>
	<path fill="#F6EB27" d="M34.8,59.8c0.5-2.6-0.1-4.8-1.8-6.8c-0.4-0.4-0.6-1-0.9-1.5c-0.1-0.2-0.3-0.6,0-0.8c0.3-0.2,0.5,0,0.8,0.2
		c1.1,0.8,2,1.9,2.8,2.9c0.6,0.7,1.2,1.4,1.9,2c1.5,1.8,3.6,2.9,5.5,4.2c0.6,0.4,1.4,0.5,1.1,1.4c-0.2,0.9-1.1,0.7-1.7,0.7
		C39.7,61.9,37.1,61.2,34.8,59.8z"/>
	<path fill="#F7EC28" d="M189.3,25c0.7-2.5,0-4.6-1.5-6.6c-0.4-0.5-0.8-1-1-1.6c-0.1-0.3-0.4-0.6-0.1-0.8c0.3-0.2,0.6,0,0.9,0.2
		c1.3,1,2.2,2.3,3.2,3.5c0.6,0.7,1.2,1.4,1.9,1.9c1.5,1.5,3.2,2.6,5,3.7c0.5,0.3,1.2,0.5,1,1.2c-0.2,0.8-0.9,0.9-1.6,0.8
		c-2.2-0.2-4.2-0.8-6.2-1.6C190.3,25.5,189.8,25.2,189.3,25z"/>
	<path fill="#F6EB28" d="M167.2,59.8c0.8-2.5,0-4.6-1.6-6.5c-0.4-0.6-0.8-1.2-1.2-1.8c-0.1-0.2-0.3-0.5-0.1-0.7
		c0.2-0.3,0.5-0.1,0.8,0.1c1,0.7,1.8,1.7,2.6,2.6c0.8,0.9,1.4,2.1,2.5,2.7c1.6,1.8,3.6,2.9,5.6,4.2c0.4,0.3,0.8,0.5,0.7,1.1
		c-0.1,0.6-0.6,0.8-1.2,0.8C172.5,62,169.7,61.4,167.2,59.8z"/>
	<path fill="#EAE658" d="M95.5,20.4c-0.2-0.4-0.5-0.8-0.7-1.3c-0.1-0.2,0-0.4,0.1-0.5c0.1-0.1,0.4,0,0.4,0c1.1,1.7,2.9,2.7,3.6,4.7
		c0,0.1,0,0.2,0,0.2C97.5,22.9,96.6,21.5,95.5,20.4z"/>
	<path fill="#E8E65D" d="M51.1,20.4c-0.2-0.6-1.1-1.2-0.4-1.8c0.4-0.3,0.8,0.7,1.2,1c0.7,0.6,1.3,1.4,1.9,2.1c0.4,0.5,0.7,1,0.6,1.6
		c-1.2-0.4-1.8-1.5-2.6-2.2C51.6,20.9,51.4,20.7,51.1,20.4z"/>
	<path fill="#EAE758" d="M183.9,90.2c-0.2-0.4-0.5-0.7-0.7-1.1c-0.1-0.2-0.1-0.5,0.2-0.6c0.2-0.1,0.4,0,0.5,0.1
		c0.8,1.3,2.1,2.2,3,3.5c0.2,0.3,0.5,0.7,0.2,1.2C185.9,92.5,184.9,91.3,183.9,90.2z"/>
	<path fill="#ECE75E" d="M139.6,20.6c-0.2-0.5-0.5-0.9-0.7-1.4c-0.1-0.2-0.1-0.5,0.1-0.7c0.2-0.2,0.4,0,0.6,0.2c0.9,1,1.7,2,2.6,2.9
		c0.4,0.5,0.6,1,0.7,1.6c-1-0.2-1.5-1-2.2-1.7C140.4,21.2,140.2,20.7,139.6,20.6z"/>
	<path fill="#EDE857" d="M29.3,55.3c-0.2-0.6-1-1.3-0.5-1.6c0.6-0.4,0.9,0.6,1.3,1c1,1.1,2.3,1.9,2.5,3.5
		C31.1,57.8,30.5,56.2,29.3,55.3z"/>
	<path fill="#EBE75E" d="M95.5,90.2c-0.2-0.5-1.1-1.1-0.5-1.6c0.5-0.4,0.9,0.5,1.2,1c1,1.2,2.4,2,2.6,3.7
		C97.5,92.6,96.6,91.3,95.5,90.2z"/>
	<path fill="#EAE752" d="M73.4,55.4c-0.2-0.4-0.4-0.9-0.6-1.3c-0.1-0.2-0.1-0.4,0.2-0.5c0.1,0,0.4,0,0.4,0.1c0.9,1.5,2.5,2.5,3.3,4
		c0.1,0.2,0,0.4,0,0.6C75.2,57.8,74.5,56.4,73.4,55.4z"/>
	<path fill="#ECE75E" d="M7.2,20.6c-0.2-0.5-0.8-0.8-0.7-1.4c0-0.2,0-0.4,0.2-0.5c0.2-0.1,0.4,0,0.5,0.2c0.8,1.3,2,2.1,2.9,3.3
		c0.3,0.4,0.4,0.8,0.3,1.2C9,22.7,8.2,21.5,7.2,20.6z"/>
	<path fill="#EAE759" d="M51.2,90.2c-0.1-0.2-0.2-0.4-0.4-0.6c-0.3-0.4-0.5-0.8,0-1.1c0.4-0.3,0.5,0.3,0.8,0.5
		c0.8,0.9,1.6,1.8,2.4,2.6c0.4,0.5,0.7,1,0.6,1.6C53.1,92.5,52.3,91.2,51.2,90.2z"/>
	<path fill="#ECE85D" d="M139.7,90.3c-0.3-0.6-1.2-1.2-0.6-1.7c0.5-0.4,1,0.6,1.3,1.1c0.9,1.1,2.4,1.9,2.6,3.5
		c-1.2-0.2-1.7-1.3-2.5-1.9C140.2,91,140,90.6,139.7,90.3z"/>
	<path fill="#E9E652" d="M228,20.4c-0.2-0.6-1.2-1.3-0.6-1.7c0.6-0.4,0.9,0.7,1.3,1.1c0.7,0.6,1.3,1.4,2,2.1
		c0.3,0.4,0.7,0.8,0.6,1.4c-1-0.1-1.4-0.8-2-1.4C228.9,21.4,228.4,20.9,228,20.4z"/>
	<path fill="#E7E54D" d="M161.8,55.4c-0.1-0.2-0.2-0.3-0.3-0.5c-0.3-0.4-0.4-0.9-0.1-1.2c0.5-0.3,0.6,0.4,0.8,0.7
		c0.8,0.9,1.8,1.7,2.5,2.7c0.3,0.4,0.5,0.7,0.4,1.2c-1.1-0.2-1.5-1.2-2.2-1.8C162.5,56.1,162.2,55.7,161.8,55.4z"/>
	<path fill="#E9E655" d="M250.1,55.2c-0.1-0.5-1-1.1-0.3-1.5c0.5-0.3,0.8,0.6,1.1,1c0.9,1.1,2.3,1.8,2.5,3.4c-0.7,0.1-1-0.5-1.4-0.9
		C251.3,56.6,250.7,55.9,250.1,55.2z"/>
	<path fill="#E8E74F" d="M206.1,55.4c-0.1-0.6-1-1.3-0.4-1.7c0.5-0.3,0.8,0.7,1.3,1.2c0.6,0.6,1.2,1.3,1.9,2
		c0.4,0.4,0.6,0.9,0.6,1.5c-1.1-0.2-1.5-1.2-2.3-1.8C206.8,56.2,206.6,55.6,206.1,55.4z"/>
	<path fill="#E8E54E" d="M228,90.2c-0.2-0.2-0.3-0.5-0.5-0.7c-0.2-0.3-0.3-0.7,0-0.9c0.4-0.2,0.5,0.2,0.7,0.4
		c0.8,0.9,1.6,1.8,2.5,2.7c0.4,0.4,0.7,0.9,0.6,1.5C229.9,92.6,229.1,91.3,228,90.2z"/>
	<path fill="#EBE84F" d="M117.8,55.6c-0.2-0.5-0.4-0.9-0.6-1.4c-0.1-0.2-0.1-0.4,0.1-0.5c0.2-0.2,0.5,0,0.6,0.2
		c0.8,1.3,2,2.1,2.9,3.3c0.2,0.5,0.2,0.9-0.5,0.7C119.3,57.2,118.8,56.1,117.8,55.6z"/>
	<path fill="#E6E547" d="M7.2,90.3C7,90,6.9,89.8,6.7,89.6c-0.1-0.3-0.3-0.7,0.1-1c0.2-0.1,0.4,0,0.5,0.2l0,0
		c0.5,0.8,1.3,1.4,1.9,2.2c0.6,0.6,1.2,1.2,1.4,2.2C9,92.7,8.2,91.3,7.2,90.3z"/>
	<path fill="#C9DBC2" d="M182.2,74.6c-0.6-0.5-0.5-1.3-0.9-1.8c-0.3-0.3-0.3-0.9-0.8-0.7c-0.5,0.1-0.8,0.5-0.9,1
		c-0.1,1.3-0.4,2.6-0.1,3.9c0.1,0.5,0,1.1,0.1,1.7c-0.8-1.1-0.6-6,0.2-7c0.4-0.4,0.7-0.4,1.1,0C181.6,72.5,182.2,73.4,182.2,74.6z"
		/>
	<path fill="#E7E648" d="M183.8,20.3c-0.1-0.1-0.1-0.2-0.2-0.4c-0.2-0.3-0.4-0.7,0-0.9c0.5-0.2,0.6,0.4,0.9,0.7
		c0.7,0.8,1.4,1.5,2.1,2.3c0.3,0.4,0.7,0.8,0.5,1.4C185.7,22.7,184.9,21.3,183.8,20.3z"/>
	<path fill="#CEDD96" d="M120.2,57.9c0.4-0.1,0.5-0.3,0.5-0.7c0.4,0.3,0.5,0.7,0.4,1.2C120.8,58.4,120.4,58.3,120.2,57.9z"/>
	<path fill="#9FC5DA" d="M236.9,21.6c-0.7-0.3-1.1-0.8-1.5-1.4C236,20.5,236.5,21,236.9,21.6z"/>
	<path fill="#F7F18F" d="M184.6,19.7c-0.3-0.1-0.5-0.6-0.9-0.4c-0.1,0-0.1,0.4-0.1,0.7c0,0-0.1,0-0.1-0.1c-0.3-0.5-0.7-1.1-0.2-1.4
		c0.5-0.3,0.6,0.5,1,0.8C184.5,19.3,184.5,19.5,184.6,19.7z"/>
	<path fill="#F8F193" d="M9.2,90.9c-0.8-0.6-1.6-1.1-1.9-2.2C7.9,89.4,8.7,90,9.2,90.9z"/>
	<path fill="#F8F193" d="M7.2,88.8c-0.8-0.2-0.4,0.5-0.5,0.8c-0.5-0.4-0.6-0.9-0.1-1.3C6.9,88,7.2,88.4,7.2,88.8z"/>
	<path fill="#F4F2A8" d="M228.3,89c-0.7-0.5-0.8-0.1-0.7,0.5c-0.4-0.4-0.7-0.9-0.2-1.3C227.9,88,228.1,88.5,228.3,89z"/>
</g>
</svg>
