<?xml version="1.0" encoding="utf-8"?>
<!-- Generator: Adobe Illustrator 18.0.0, SVG Export Plug-In . SVG Version: 6.00 Build 0)  -->
<!DOCTYPE svg PUBLIC "-//W3C//DTD SVG 1.1//EN" "http://www.w3.org/Graphics/SVG/1.1/DTD/svg11.dtd">
<svg version="1.1" id="Layer_1" xmlns="http://www.w3.org/2000/svg" xmlns:xlink="http://www.w3.org/1999/xlink" x="0px" y="0px"
	 viewBox="0 0 100 100" enable-background="new 0 0 100 100" xml:space="preserve">
<g>
	<path fill="#FCF0E9" d="M52.1,29c0,1.4,0,2.7,0,4.1c-0.4,0-0.3,0.4-0.4,0.6c-0.8,2.1-2.1,3.7-4.2,4.6c-0.4,0.2-1,0.1-1.2,0.6
		c-11.9,0-23.7,0-35.6,0c0-0.3-0.2-0.3-0.4-0.3c-2.8-1.1-4.6-2.9-5.3-5.9c0-0.2-0.1-0.3-0.3-0.3c0-1,0-2,0-3c0.3,0,0.3-0.2,0.3-0.4
		c0.5-2,1.7-3.5,3.4-4.7c1.4-0.9,2.9-1.3,4.5-1.2c1.6,0,3.3,0,4.9,0c1.6,0,2.6-1,2.7-2.6c0.1-1.9,0.5-3.7,1.5-5.3
		c1.5-2.5,3.5-4.2,6.3-4.9c0.2-0.1,0.6,0,0.6-0.4c1.6,0,3.1,0,4.7,0c0,0.3,0.3,0.3,0.5,0.4c2.2,0.7,4.1,1.7,5.5,3.6
		c1.5,1.9,2.4,4,2.4,6.5c0,1.6,1.2,2.8,2.8,2.8c3.2,0.1,5.4,1.8,6.8,4.7C51.6,28.2,51.6,28.8,52.1,29z"/>
</g>
<g>
	<path fill="#FCF0E9" d="M93.9,76.8c0,1.4,0,2.7,0,4.1c-0.4,0-0.3,0.4-0.4,0.6c-0.8,2.1-2.1,3.7-4.2,4.6c-0.4,0.2-1,0.1-1.2,0.6
		c-11.9,0-23.7,0-35.6,0c0-0.3-0.2-0.3-0.4-0.3c-2.8-1.1-4.6-2.9-5.3-5.9c0-0.2-0.1-0.3-0.3-0.3c0-1,0-2,0-3c0.3,0,0.3-0.2,0.3-0.4
		c0.5-2,1.7-3.5,3.4-4.7c1.4-0.9,2.9-1.3,4.5-1.2c1.6,0,3.3,0,4.9,0c1.6,0,2.6-1,2.7-2.6c0.1-1.9,0.5-3.7,1.5-5.3
		c1.5-2.5,3.5-4.2,6.3-4.9c0.2-0.1,0.6,0,0.6-0.4c1.6,0,3.1,0,4.7,0c0,0.3,0.3,0.3,0.5,0.4c2.2,0.7,4.1,1.7,5.5,3.6
		c1.5,1.9,2.4,4,2.4,6.5c0,1.6,1.2,2.8,2.8,2.8c3.2,0.1,5.4,1.8,6.8,4.7C93.5,76,93.4,76.6,93.9,76.8z"/>
</g>
</svg>
