<?xml version="1.0" encoding="utf-8"?>
<!-- Generator: Adobe Illustrator 18.0.0, SVG Export Plug-In . SVG Version: 6.00 Build 0)  -->
<!DOCTYPE svg PUBLIC "-//W3C//DTD SVG 1.1//EN" "http://www.w3.org/Graphics/SVG/1.1/DTD/svg11.dtd">
<svg version="1.1" id="Layer_1" xmlns="http://www.w3.org/2000/svg" xmlns:xlink="http://www.w3.org/1999/xlink" x="0px" y="0px"
	 viewBox="0 0 200 100" enable-background="new 0 0 200 100" xml:space="preserve">
<g>
	<path fill="#FCF0E9" d="M81.9,33c0,1.8,0,3.7,0,5.5c-0.5,0.1-0.5,0.5-0.6,0.8c-1.1,2.8-2.9,5-5.7,6.2c-0.5,0.2-1.3,0.2-1.6,0.9
		c-16.1,0-32.1,0-48.2,0c0-0.4-0.3-0.3-0.6-0.4c-3.7-1.4-6.3-3.9-7.2-7.9c-0.1-0.2-0.2-0.3-0.4-0.4c0-1.4,0-2.7,0-4.1
		c0.4,0,0.3-0.3,0.4-0.6c0.7-2.7,2.3-4.8,4.6-6.3c1.8-1.2,3.9-1.7,6.1-1.7c2.2,0,4.4,0,6.6,0c2.2,0,3.5-1.3,3.6-3.5
		c0.1-2.5,0.7-4.9,2-7.1c2-3.3,4.8-5.6,8.6-6.7c0.3-0.1,0.8-0.1,0.8-0.6c2.1,0,4.2,0,6.3,0c0,0.4,0.4,0.4,0.7,0.5
		c2.9,0.9,5.5,2.4,7.4,4.8c2,2.6,3.3,5.5,3.2,8.7c0,2.2,1.6,3.7,3.8,3.8c4.4,0.2,7.3,2.5,9.2,6.3C81.3,31.9,81.3,32.7,81.9,33z"/>
</g>
<g>
	<path fill="#FCF0E9" d="M180.9,75.8c0,1.8,0,3.7,0,5.5c-0.5,0.1-0.5,0.5-0.6,0.8c-1.1,2.8-2.9,5-5.7,6.2c-0.5,0.2-1.3,0.2-1.6,0.9
		c-16.1,0-32.1,0-48.2,0c0-0.4-0.3-0.3-0.6-0.4c-3.7-1.4-6.3-3.9-7.2-7.9c-0.1-0.2-0.2-0.3-0.4-0.4c0-1.4,0-2.7,0-4.1
		c0.4,0,0.3-0.3,0.4-0.6c0.7-2.7,2.3-4.8,4.6-6.3c1.8-1.2,3.9-1.7,6.1-1.7c2.2,0,4.4,0,6.6,0c2.2,0,3.5-1.3,3.6-3.5
		c0.1-2.5,0.7-4.9,2-7.1c2-3.3,4.8-5.6,8.6-6.7c0.3-0.1,0.8-0.1,0.8-0.6c2.1,0,4.2,0,6.3,0c0,0.4,0.4,0.4,0.7,0.5
		c2.9,0.9,5.5,2.4,7.4,4.8c2,2.6,3.3,5.5,3.2,8.7c0,2.2,1.6,3.7,3.8,3.8c4.4,0.2,7.3,2.5,9.2,6.3C180.3,74.8,180.3,75.5,180.9,75.8z
		"/>
</g>
</svg>
