<?xml version="1.0" encoding="utf-8"?>
<!-- Generator: Adobe Illustrator 18.0.0, SVG Export Plug-In . SVG Version: 6.00 Build 0)  -->
<!DOCTYPE svg PUBLIC "-//W3C//DTD SVG 1.1//EN" "http://www.w3.org/Graphics/SVG/1.1/DTD/svg11.dtd">
<svg version="1.1" xmlns="http://www.w3.org/2000/svg" xmlns:xlink="http://www.w3.org/1999/xlink" x="0px" y="0px"
	 viewBox="0 0 600 100" enable-background="new 0 0 600 100" xml:space="preserve">
<g id="Layer_1">
	<text transform="matrix(1 0 0 1 145.4461 64.2757)" fill="#565656" font-family="'orangejuice'" font-size="67.2679">Baby N&apos; Gun</text>
</g>
<g id="plane">
	<g>
		<path fill="#CE4228" d="M55.4,57.7c0.1,1,0.5,1.8,1.6,1.9c0.5,0.3,1.2,0.1,1.8,0.2c1.8,0.2,3.7,0.5,5.4,1.3
			c-0.5,0.1-0.9,0.1-1.4,0.2c-1.4,0.2-2.7,0.4-3.9,1.1c-1.3,0.8-1.7,1.9-1,3.3c0.8,1.6,2.2,2.2,3.9,2.4c2.6,0.3,5.2-0.1,7.5-1.2
			c2.2-1.1,4.3-1.2,6.5-0.5c0.2,0.2,0.2,0.5,0.1,0.8c-0.8,2.6-0.7,5.3-0.6,7.9c0,0.3,0.1,0.6-0.2,0.9c-5.5,1.6-11.2,2.2-16.9,2.5
			c-0.6-0.4-0.3-0.9-0.4-1.4c-0.1-0.5-0.2-1-0.8-1s-0.6,0.5-0.7,0.9c-0.6,1.9-1.1,3.8-1.9,5.6c-0.2,0.5-0.3,1.1-0.8,1.4
			c-0.2,0.4-0.4,0.7-0.6,1.1c-1,2.3-2.1,4.5-3.8,6.3c-1.2,1.3-2.5,2.3-4.4,1.9c-1.8-0.4-2.4-1.9-2.9-3.5c-0.8-2.9-0.9-5.9-0.7-8.9
			c-0.3-0.7,0-1.5-0.2-2.3c-1.5-0.2-3-0.1-4.4-0.4c-0.3-0.2-0.6-0.5-0.8-0.8c-1.1-1.5-2.5-2.8-3.9-4.1c-1.2-1.1-2.6-1.9-3.8-3.1
			c-1-1.7-1.9-3.5-2.2-5.5c-0.2-1.8,0.6-3.3,2.3-3.7c1.5-0.4,2.6,0.3,3.3,2.1c0.6,1.6,0.8,3.3,0.8,5c0,0.7,0.1,0.9,0.8,0.5
			c3.5-1.9,7-3.7,10.7-5.2c0.5-0.2,0.7-0.5,0.6-1c-0.3-1.1-0.1-2.1,0.4-3c0.3-0.3,0.3-0.7,0.4-1.1c0.6-2.5,1.1-5,2.7-7.1
			c1.2-1.5,3-1.6,4.3-0.1c0.6,0.7,1,1.6,1.4,2.4c0.5,1.3,0.7,2.6,1.2,3.9C55,57.5,55.1,57.7,55.4,57.7z"/>
		<path fill="#CE4228" d="M32.4,78c-1.3,0-2.6-0.6-3.9-0.2c-1.1,0.3-2.3,0.6-3.5,0.7c-1.4,0.2-2.8,0.2-4.1-0.4
			c-1.6-0.7-2.1-2.5-1.1-3.8c1.2-1.5,3.1-2.2,4.9-2.7c1.1-0.3,1.8,0.7,2.7,1.2c2.4,1.3,4.6,2.9,6.4,5.4C33.2,78.1,32.8,78.1,32.4,78
			z"/>
		<path fill="#474C54" d="M57.7,82.8c-0.2,1-0.7,1.5-1.7,1.5c-0.9,0.1-1.7,0.1-2.6,0.1c0.9-2.5,1.8-4.9,2.5-7.4
			c0.2-0.4,0.1-1.1,0.8-1c0.6,0.1,1.1,0.4,1.2,1.1c0,0.5,0.1,1.1,0.1,1.7C57.9,80.1,58.1,81.4,57.7,82.8z"/>
		<path fill="#CE4228" d="M77.6,67.9c0-0.3-0.1-0.7,0.5-0.5c1.6,0.7,2.7,1.9,3,3.7c0.3,1.7-0.7,2.6-1.9,3.4
			c-0.5,0.3-0.9,0.5-1.6,0.9C77.3,72.8,77.2,70.3,77.6,67.9z"/>
		<path fill="#CFA02C" d="M34.5,77.5c-2.1-2.5-4.5-4.6-7.3-6.3c-0.2,0-0.3-0.1-0.2-0.3c0.4-0.2,1,0.1,1.1-0.5c3.4,2.1,6.4,4.5,8.5,8
			C35.7,78.5,35,78.3,34.5,77.5z"/>
		<path fill="#CFA02C" d="M76.5,68.1c-0.6,2-0.6,4.2-0.3,6.3c0.2,1.5,0.2,1.5-1.3,1.9c-0.4-3.2-0.3-6.4,0.7-9.6
			C76.7,66.7,76.8,67.1,76.5,68.1z"/>
		<path fill="#474C53" d="M56.6,58.9c0,0.4,0.1,0.7,0.1,1c-1,0.2-1.8,0-1.7-1.3c0-0.4-0.1-0.8-0.2-1.2
			C56.3,57.3,56.4,57.4,56.6,58.9z"/>
		<path fill="#494D53" d="M44.7,59.5c0.1,1-0.2,2-0.4,3C42.9,61.4,43,60.5,44.7,59.5z"/>
		<path fill="#624846" d="M40.9,78.8L40.9,78.8h0.2c0.2,0.7,0,1.5,0,2.3C40.4,80.4,40.7,79.6,40.9,78.8z"/>
		<path fill="#FFFFFF" d="M51.4,65.1c1.4,0,2.4,0.9,2.4,2.3c0,1.2-0.8,2.1-2,2.1c-1.3,0-2.3-1-2.3-2.4
			C49.5,65.9,50.2,65.1,51.4,65.1z"/>
		<path fill="#FFFDFD" d="M45.6,68.7c0,1-0.6,1.7-1.6,1.7s-1.9-0.9-1.9-2c0-1,0.6-1.7,1.6-1.7S45.6,67.6,45.6,68.7z"/>
		<path fill="#444C54" d="M28.6,63.5c0.8,0,1.6,0.8,1.7,1.6c0,0.9-0.5,1.5-1.4,1.5c-0.9,0.1-1.6-0.7-1.6-1.7
			C27.3,64.2,27.7,63.7,28.6,63.5z"/>
		<path fill="#454C55" d="M24.2,73.1c1.2,0,2.1,0.9,2.1,2.2c-0.1,1.1-0.8,1.8-1.8,1.8c-1.2,0-2.1-0.9-2.1-2.1
			C22.4,73.9,23,73.2,24.2,73.1z"/>
		<path fill="#E8E7E7" d="M28.8,64.6c0.3,0,0.6,0.2,0.6,0.6c-0.1,0.3-0.3,0.6-0.6,0.6s-0.5-0.2-0.6-0.6
			C28.2,64.8,28.4,64.6,28.8,64.6z"/>
		<path fill="#ECEAEB" d="M25.3,75.2c0,0.3-0.2,0.6-0.5,0.6c-0.5,0.1-0.7-0.2-0.8-0.6c0-0.4,0.2-0.6,0.6-0.7
			C25,74.6,25.2,74.8,25.3,75.2z"/>
	</g>
	<path fill="#EFEBE5" d="M64.2,61.1c0,0-9.3,0.5-5.9,5.2C61.7,71,69,67,69,67s2.8-1.3,3.4-1.1"/>
	<path fill="#EFEBE5" d="M77.7,67.3h-1c0,0-1.4,4.1-0.4,8.1l1.3,0"/>
	<path fill="#EFEBE5" d="M27,70.9l-1.7,0.5c0,0,8.2,5.2,8.5,6.8h1.4C35.3,78.2,28.2,70.6,27,70.9z"/>
	<g>
		<path fill="#CE4228" d="M543.7,21.7c-0.1,1-0.5,1.8-1.6,1.9c-0.5,0.3-1.2,0.1-1.8,0.2c-1.8,0.2-3.7,0.5-5.4,1.3
			c0.5,0.1,0.9,0.1,1.4,0.2c1.4,0.2,2.7,0.4,3.9,1.1c1.3,0.8,1.7,1.9,1,3.3c-0.8,1.6-2.2,2.2-3.9,2.4c-2.6,0.3-5.2-0.1-7.5-1.2
			c-2.2-1.1-4.3-1.2-6.5-0.5c-0.2,0.2-0.2,0.5-0.1,0.8c0.8,2.6,0.7,5.3,0.6,7.9c0,0.3-0.1,0.6,0.2,0.9c5.5,1.6,11.2,2.2,16.9,2.5
			c0.6-0.4,0.3-0.9,0.4-1.4s0.2-1,0.8-1c0.6,0,0.6,0.5,0.7,0.9c0.6,1.9,1.1,3.8,1.9,5.6c0.2,0.5,0.3,1.1,0.8,1.4
			c0.2,0.4,0.4,0.7,0.6,1.1c1,2.3,2.1,4.5,3.8,6.3c1.2,1.3,2.5,2.3,4.4,1.9c1.8-0.4,2.4-1.9,2.9-3.5c0.8-2.9,0.9-5.9,0.7-8.9
			c0.3-0.7,0-1.5,0.2-2.3c1.5-0.2,3-0.1,4.4-0.4c0.3-0.2,0.6-0.5,0.8-0.8c1.1-1.5,2.5-2.8,3.9-4.1c1.2-1.1,2.6-1.9,3.8-3.1
			c1-1.7,1.9-3.5,2.2-5.5c0.2-1.8-0.6-3.3-2.3-3.7c-1.5-0.4-2.6,0.3-3.3,2.1c-0.6,1.6-0.8,3.3-0.8,5c0,0.7-0.1,0.9-0.8,0.5
			c-3.5-1.9-7-3.7-10.7-5.2c-0.5-0.2-0.7-0.5-0.6-1c0.3-1.1,0.1-2.1-0.4-3c-0.3-0.3-0.3-0.7-0.4-1.1c-0.6-2.5-1.1-5-2.7-7.1
			c-1.2-1.5-3-1.6-4.3-0.1c-0.6,0.7-1,1.6-1.4,2.4c-0.5,1.3-0.7,2.6-1.2,3.9C544.1,21.5,544,21.7,543.7,21.7z"/>
		<path fill="#CE4228" d="M566.7,42c1.3,0,2.6-0.6,3.9-0.2c1.1,0.3,2.3,0.6,3.5,0.7c1.4,0.2,2.8,0.2,4.1-0.4
			c1.6-0.7,2.1-2.5,1.1-3.8c-1.2-1.5-3.1-2.2-4.9-2.7c-1.1-0.3-1.8,0.7-2.7,1.2c-2.4,1.3-4.6,2.9-6.4,5.4
			C565.9,42.1,566.3,42.1,566.7,42z"/>
		<path fill="#474C54" d="M541.4,46.8c0.2,1,0.7,1.5,1.7,1.5c0.9,0.1,1.7,0.1,2.6,0.1c-0.9-2.5-1.8-4.9-2.5-7.4
			c-0.2-0.4-0.1-1.1-0.8-1c-0.6,0.1-1.1,0.4-1.2,1.1c0,0.5-0.1,1.1-0.1,1.7C541.2,44.1,541,45.4,541.4,46.8z"/>
		<path fill="#CE4228" d="M521.5,31.9c0-0.3,0.1-0.7-0.5-0.5c-1.6,0.7-2.7,1.9-3,3.7c-0.3,1.7,0.7,2.6,1.9,3.4
			c0.5,0.3,0.9,0.5,1.6,0.9C521.8,36.8,521.9,34.3,521.5,31.9z"/>
		<path fill="#CFA02C" d="M564.6,41.5c2.1-2.5,4.5-4.6,7.3-6.3c0.2,0,0.3-0.1,0.2-0.3c-0.4-0.2-1,0.1-1.1-0.5
			c-3.4,2.1-6.4,4.5-8.5,8C563.4,42.5,564.1,42.3,564.6,41.5z"/>
		<path fill="#CFA02C" d="M522.6,32.1c0.6,2,0.6,4.2,0.3,6.3c-0.2,1.5-0.2,1.5,1.3,1.9c0.4-3.2,0.3-6.4-0.7-9.6
			C522.4,30.7,522.3,31.1,522.6,32.1z"/>
		<path fill="#474C53" d="M542.5,22.9c0,0.4-0.1,0.7-0.1,1c1,0.2,1.8,0,1.7-1.3c0-0.4,0.1-0.8,0.2-1.2
			C542.8,21.3,542.7,21.4,542.5,22.9z"/>
		<path fill="#494D53" d="M554.4,23.5c-0.1,1,0.2,2,0.4,3C556.2,25.4,556.1,24.5,554.4,23.5z"/>
		<path fill="#624846" d="M558.2,42.8L558.2,42.8H558c-0.2,0.7,0,1.5,0,2.3C558.7,44.4,558.4,43.6,558.2,42.8z"/>
		<path fill="#FFFFFF" d="M547.7,29.1c-1.4,0-2.4,0.9-2.4,2.3c0,1.2,0.8,2.1,2,2.1c1.3,0,2.3-1,2.3-2.4
			C549.6,29.9,548.9,29.1,547.7,29.1z"/>
		<path fill="#FFFDFD" d="M553.5,32.7c0,1,0.6,1.7,1.6,1.7s1.9-0.9,1.9-2c0-1-0.6-1.7-1.6-1.7S553.5,31.6,553.5,32.7z"/>
		<path fill="#444C54" d="M570.5,27.5c-0.8,0-1.6,0.8-1.7,1.6c0,0.9,0.5,1.5,1.4,1.5c0.9,0.1,1.6-0.7,1.6-1.7
			C571.8,28.2,571.4,27.7,570.5,27.5z"/>
		<path fill="#454C55" d="M574.9,37.1c-1.2,0-2.1,0.9-2.1,2.2c0.1,1.1,0.8,1.8,1.8,1.8c1.2,0,2.1-0.9,2.1-2.1
			C576.7,37.9,576.1,37.2,574.9,37.1z"/>
		<path fill="#E8E7E7" d="M570.3,28.6c-0.3,0-0.6,0.2-0.6,0.6c0.1,0.3,0.3,0.6,0.6,0.6s0.5-0.2,0.6-0.6
			C570.9,28.8,570.7,28.6,570.3,28.6z"/>
		<path fill="#ECEAEB" d="M573.8,39.2c0,0.3,0.2,0.6,0.5,0.6c0.5,0.1,0.7-0.2,0.8-0.6c0-0.4-0.2-0.6-0.6-0.7
			C574.1,38.6,573.9,38.8,573.8,39.2z"/>
	</g>
	<path fill="#EFEBE5" d="M534.9,25.1c0,0,9.3,0.5,5.9,5.2S530.2,31,530.2,31s-2.8-1.3-3.4-1.1"/>
	<path fill="#EFEBE5" d="M521.5,31.3h1c0,0,1.4,4.1,0.4,8.1l-1.3,0"/>
	<path fill="#EFEBE5" d="M572.1,34.9l1.7,0.5c0,0-8.2,5.2-8.5,6.8h-1.4C563.9,42.2,571,34.5,572.1,34.9z"/>
</g>
</svg>
