<?xml version="1.0" encoding="utf-8"?>
<!-- Generator: Adobe Illustrator 18.0.0, SVG Export Plug-In . SVG Version: 6.00 Build 0)  -->
<!DOCTYPE svg PUBLIC "-//W3C//DTD SVG 1.1//EN" "http://www.w3.org/Graphics/SVG/1.1/DTD/svg11.dtd">
<svg version="1.1" xmlns="http://www.w3.org/2000/svg" xmlns:xlink="http://www.w3.org/1999/xlink" x="0px" y="0px"
	 viewBox="0 0 500 200" enable-background="new 0 0 500 200" xml:space="preserve">
<g id="Layer_1">
	<g>
		<path fill="#46A47B" d="M286.9,200.5c-95.3,0-190.6,0-286,0c-0.2-1.7,0.4-3.1,1.3-4.4c4.3-5.9,8.8-11.6,13.7-17
			c9.8-10.9,20.8-20.3,33.1-28.4c21.4-14,44.7-23,70.1-26.6c5.9-0.9,11.9-1.1,17.8-1.8c1.3,0.5,2.6,0.1,3.8,0
			c23-0.4,45.2,3.6,66.6,12c14.8,5.8,28.6,13.6,41.3,23.4c0.5,0.4,1.1,0.8,1.5,1.4c6.7,4.9,12.9,10.6,18.6,16.6
			c6.3,6.7,12.2,13.7,17.3,21.3C286.8,198,288,199,286.9,200.5z"/>
		<path fill="#318C8D" d="M286.9,200.5c-1.9-3.9-4.7-7.2-7.3-10.6c-5.2-6.8-10.9-13.2-17.2-19.1c-4-3.8-8.3-7.3-12.5-10.9
			c-0.4-1.6,0.9-2.2,1.8-2.9c5.4-4.2,11.1-8,17-11.4c14.6-8.3,30-14.7,46.3-18.6c9.8-2.3,19.8-3.8,29.9-4.4
			c4.9-0.3,9.7-0.4,14.6-0.3c11.6,0.3,23,1.6,34.3,4.2c1.1,0.3,2,1,3.2,1c2.9,0.1,5.6,1.2,8.4,2.1c16.8,5.1,32.5,12.6,47.1,22.5
			c6.6,4.5,12.8,9.5,18.8,14.8c9.8,8.7,18.2,18.4,25.8,29.1c1,1.4,1.7,2.8,1.5,4.5C428,200.5,357.4,200.5,286.9,200.5z"/>
		<path fill="#308D65" d="M136.8,122.8c11.2-12.9,24.3-23.5,38.8-32.4c20.5-12.5,42.8-20.3,66.6-23.5c3.8-0.5,7.6-0.7,11.3-1.1
			c1.5-0.5,3.1,0.2,4.6-0.4c4.4,0,8.8,0,13.2,0c1.4,0.5,2.9,0.1,4.3,0.2c18.8-0.2,36.6,4.3,53.9,11.3c17.3,7,33.1,16.5,47.3,28.7
			c7.1,6.2,13.8,12.7,19.9,20c0.6,0.8,1.4,1.5,0.7,2.6c-4.9-0.9-9.8-2-14.7-2.7c-12.2-1.9-24.5-2.6-37-1.9
			c-16.6,0.9-32.6,4.2-48.2,9.8c-17.1,6.1-32.8,14.8-47.1,25.9c-0.2,0.1-0.3,0.3-0.5,0.5c-8.3-6.2-16.8-11.9-26-16.7
			c-12.3-6.5-25.1-11.4-38.6-14.7c-10.2-2.5-20.5-4.1-30.9-4.7c-4.9-0.3-9.8-0.2-14.8-0.4C138.6,123.3,137.6,123.6,136.8,122.8z"/>
		<path fill="#A1C9B7" d="M258.1,65.5c-1.5,0.6-3,0.5-4.6,0.4c0-0.1,0-0.3,0-0.4C255.1,65.5,256.6,65.5,258.1,65.5z"/>
		<path fill="#A1C9B7" d="M275.9,65.5c0,0.1,0,0.3,0,0.4c-1.6,0.1-3.1,0.2-4.6-0.4C272.9,65.5,274.4,65.5,275.9,65.5z"/>
	</g>
</g>
<g id="Layer_2">
</g>
</svg>
