<?xml version="1.0" standalone="no"?>
<!DOCTYPE svg PUBLIC "-//W3C//DTD SVG 20010904//EN"
 "http://www.w3.org/TR/2001/REC-SVG-20010904/DTD/svg10.dtd">
<svg version="1.0" xmlns="http://www.w3.org/2000/svg"
 width="300.000000pt" height="300.000000pt" viewBox="0 0 300.000000 300.000000"
 preserveAspectRatio="xMidYMid meet">
<metadata>
Created by potrace 1.11, written by Peter Selinger 2001-2013
</metadata>
<g transform="translate(0.000000,300.000000) scale(0.100000,-0.100000)"
fill="#000000" stroke="none">
<path d="M1095 2728 c-241 -22 -431 -137 -512 -309 -47 -101 -58 -150 -58
-264 0 -94 3 -116 22 -152 12 -22 20 -43 18 -45 -2 -1 -7 -21 -11 -43 -12 -67
-5 -137 19 -186 l23 -47 -47 -6 c-72 -10 -165 -61 -196 -108 -19 -28 -31 -37
-42 -32 -64 27 -170 54 -211 54 -57 0 -97 -28 -84 -58 4 -9 7 -30 8 -47 1 -23
8 -34 33 -46 23 -12 29 -19 21 -27 -18 -18 10 -42 48 -42 18 0 36 5 39 10 4 6
11 8 16 4 6 -4 4 -15 -5 -29 -14 -21 -14 -25 0 -36 27 -22 46 -19 88 12 39 29
41 29 50 10 16 -36 70 -53 168 -52 50 1 94 3 97 6 4 2 13 0 20 -5 10 -6 15
-38 17 -112 2 -98 8 -150 20 -191 4 -12 -2 -26 -15 -38 -23 -22 -29 -88 -12
-147 7 -22 6 -32 -1 -32 -6 0 -62 -20 -125 -45 -63 -25 -118 -43 -123 -40 -15
9 -97 137 -113 176 -10 26 -23 38 -41 41 -34 7 -52 -10 -60 -58 -4 -20 -15
-45 -25 -55 -13 -14 -17 -35 -17 -76 1 -61 2 -62 85 -79 28 -6 55 -34 81 -84
33 -63 58 -83 98 -77 19 4 42 13 51 21 13 12 42 14 141 12 69 -2 139 1 155 6
123 35 170 39 297 21 128 -17 439 -24 493 -10 62 15 93 17 118 8 15 -6 48 -13
74 -16 27 -3 64 -8 83 -11 73 -11 209 -4 294 16 69 16 92 12 124 -20 57 -57
111 -32 127 60 8 45 50 124 77 147 27 21 68 76 68 91 0 6 -13 15 -30 21 -20 7
-30 17 -30 30 0 12 -4 22 -10 22 -5 1 -16 2 -22 3 -7 0 -13 15 -13 32 -1 18
-7 39 -14 48 -35 42 -89 0 -143 -111 -16 -35 -33 -65 -37 -67 -15 -10 -297
-16 -310 -7 -8 5 -15 22 -16 38 -2 36 -32 100 -55 116 -14 10 -15 17 -7 37 15
39 22 133 17 238 -1 35 2 68 8 74 5 5 44 25 86 43 73 32 128 77 141 117 5 14
9 15 31 3 17 -9 54 -11 122 -8 53 2 98 5 100 7 2 3 -4 31 -13 65 -10 34 -15
71 -11 87 6 22 11 25 34 21 34 -6 123 8 160 25 21 10 28 22 32 53 4 33 8 39
25 37 11 -2 54 -5 95 -7 41 -3 102 -7 134 -9 32 -2 77 1 98 7 35 9 42 16 69
72 16 35 36 68 44 75 20 17 19 62 -2 80 -15 13 -65 15 -318 12 -533 -5 -505
-4 -511 -29 -3 -12 -17 -24 -31 -27 -17 -5 -24 -13 -23 -29 3 -38 1 -43 -25
-55 -14 -6 -25 -18 -25 -25 0 -8 11 -19 25 -25 14 -6 25 -18 25 -26 0 -22 -62
-67 -76 -55 -7 5 -25 10 -40 11 -34 2 -145 -12 -157 -19 -5 -3 7 17 26 43 38
53 67 116 67 145 0 33 -41 129 -67 155 -22 22 -24 30 -17 67 17 89 7 164 -33
267 -33 84 -68 132 -151 203 -126 110 -220 159 -333 173 -87 10 -99 10 -194 2z
m1368 -1038 c9 -35 -27 -57 -99 -60 -59 -3 -63 -2 -57 20 9 35 29 44 52 21 12
-12 28 -21 37 -21 13 0 9 7 -12 27 l-29 27 25 6 c39 9 78 0 83 -20z"/>
</g>
</svg>
